<svg xmlns="http://www.w3.org/2000/svg" viewBox="0 0 400 400">
  <g fill-rule="evenodd">
    <path fill="#241c24" d="M197 17h-1l-2 1h-3l-1 1h-2l-5 2h-2l-1 1-2 1h-1a245 245 0 0 1-18 7v1h-6l-2 1-2 1h-2l-1 1-1-1v1l-1 1h-2v-1l-3 2-4 1-1 1h-1l-1 1a299 299 0 0 1-3 1l-2-1-1 1 1 1c0-1 0 0 0 0h-2l-3 1-3 1-2 1h-1l-2 1-2 1h-2v1h-3l-1 1-2 1-1 1-1 1-1 1c-1 1 0 2 2 2l2-1h4l1-1-1-1h1l2-1a72 72 0 0 1 10-3l1-1h3v-1h3l1-1h2l4-2 2-1a77 77 0 0 1 6-2h1l1 1 1-1 2-1 2-1a152 152 0 0 1 11-4h1c-1 0 0 1 0 0h1l1-1h3c0 1 1 1 1-1h1v1h1l2-1 1-1 2-1c-1 0-1 0 0 0l1-1 2 1 1 1 1-1v-1s0-1 0 0h-1l1-1 1-1h-1 2v1l1 1 1-1c1 1 1 0 1-1h-1 5l2-1h2v-1h-2 1l-1-1v-1c1 0 2 0 1 1l1 1h1v-1h1l1 1c2 0 3 0 2 1v1h2v-1h-1 6l1-1 1-1h1c1 0 1 0 0 0l2 1 2 1v-1h1l1 1a350 350 0 0 0 45 8l-2-1-5-1-2-1h-3l-2-1-1 1v-1h-3l-3-1h-1l-1-1h-2l-3-1-2-1h-2l-1-1h-1l-2-1h-3l-2-1h-1l-1-1h-2l-1-1h-2l-1-1h-2v-1l-1-1h-11m4 3v1c1 1 0 1-1 1h-1l-1-2h3m-2 0v1h1l-1-1m5 1h1-2 1m-7 0-1 1v-1h1m-2 0 1 1v-1h-1m1 4h1v-1l-1 1m13 0h1l-1 1h-1l-1-1c-1 1-1 1 1 1l1 1h1l1-1h1l1 1 2 1 1-1h-2c0 1 0 0 0 0v-1l-2-1h-3m-24 0-1 1 1-1m10 1v1h2v-1h-2m22 1h3-3m-38 0v1l-1-1h1m41 1h1v1h1l-1-1h-1m3 0 2 2h2l-4-2m-46 1h1-1m45 1h1-1m3 0 1 1-1-1m5 1c1 0 1 0 0 0v-1 1m1 0h1v1h1l1 1v-1l-1-1h-2m5 1 1 1h1l1 1h1l1 1h1l2-1h1l-1-1h-2v1h-1v-1h-3l-2-1m9 2 1 1v-1h-1m2 0 1 1 1 1v-1 2c1 0 2 0 1-1h1l-1-1-3-1m5 2h-1 1v1h1v-2h-1v1m-6 0 1 1v-1h-1m9 0v1l1 1h3v1h-1 1l1 1 1-1h3v-1l1 1v2l2-1v-1h-1v-1l1-1h-7l-3-1h-2m-1 0v1-1m-104 2h-2v1h1c1 1 2 0 2-1h-1m118 0h3-3m-8 0h-1 1m11 0 5 1 2 1h4l2 1h2l4 1h5l7 1a417 417 0 0 1 74 13 187 187 0 0 0-21 7l-11 4a331 331 0 0 1-39 14l-12 5-7 2-7 3-11 4-4 2-5 1-6 3-5 2-8 4-7 2-5 2-11 1h-12l-3-1a161 161 0 0 1-12-4l-9-2c-6-1-17-3-21-5l-10-3a196 196 0 0 1-30-9l-10-3a254 254 0 0 1-26-10 167 167 0 0 0-39-8l10 4 5 2 10 3a741 741 0 0 1 53 22 87 87 0 0 0 7 2l5 2 1 1 3 1 2 1a21 21 0 0 1 5 2h2a92 92 0 0 0 12 4 32 32 0 0 1 5 1l2 1 1 1h1l5 2 2 1 2 1h2l1 1 3 1 2 1 2 1 2 1h1l1 1h-2l-2-1h-1l-1-1-2-1h-1l-2-1-3-1-5-2a601 601 0 0 1-27-8h-1v-1l-2-1h-1c0 1 0 0 0 0l-1-1h-2l-1-1-2-1h-2v-1h-1l-1 1v-1c-1 0-1 0 0 0l-1 1v-1l-3-2c0 1 0 1 0 0h-1l-1 1h-2v-1h1v-1l-1-1-1 3h-1l1-2v-1h-1c1 0 1 0 0 0h-1l-2-2h-2l-2-2-3-1-3-1 2 8a466 466 0 0 0 0 45l1 7c-1 7 0 10 1 11l2 2v1l2 1 1 1-2 1h-1a23 23 0 0 0-15 14v13c2 5 4 8 8 11a22 22 0 0 0 5 2l1 1h1v1h3l1 1h21l6 2 1 1v4l-2 2-1 3-1 4 1 1v2l-1 1-1 2-1 1c-1 1 0 5 1 6l2 1 1 1h1l1 1h3l1 1 1 2v4l1 3v2l1 1 1 2v1l4 3 1 1h1v1h-1v1l-1 1h-3l-2 2c0 1 0 1 0 0l-1 1-1 1v8l-1 3-1 1-2 2-1 2a32 32 0 0 0-1 6v1l1 2v1l2 1 1 1h2a38 38 0 0 0 2 0l2-1h1v-1h1l1-1h1l1 1c1 0 3 3 4 9l2 5c3 3 6 2 12-2a405 405 0 0 1 17-15l1-4c-1-1-5 1-7 2l-1 1-1 1-3 2-4 4c0 2 0 2-3 5-4 4-5 5-7 4l-3-7c-1-5-1-5-5-11-4-5-4-5-2-7s4-4 6-4l3 6c2 11 6 16 9 14a21 21 0 0 0 4-5l8-11c0-1-2 0-6 6l-7 7v-1l3-4a36 36 0 0 1 4-6 49 49 0 0 1 16-16 13 13 0 0 1 4-2h1l1 2v6l-1 3-1 2-2 8-1 7-1 2a41 41 0 0 1-11 16l-8 7-4 5 4-2 13-9 4-5a158 158 0 0 1 9-12 34 34 0 0 0 5-18v-7a19 19 0 0 1 1-3l-1-4v-1l-1-1-1-3v-1a17 17 0 0 1 0-6v-2l1-1v-1l1-1v-2l1-3v-4h-2v2l-1 1v1l-1 2-1 2v1l-1 1v3l-1 2v7l-3 2-4 1-1 1 1-1v-2c1-1 0-1-1-1l-2 1-1 2-1 1-1 2h-1l-1 1h-1l-1 1v1h-1l-1 1-1 1-4 4-2 2v1l-1 2-1 1-1 1-2 1v1l-1 2-1 2-1-4c-2-9-3-10-8-9-2 1-7 5-7 7h-2l-1-1v-1c2 1 3 1 3-1v-1l-3-4v-5h1l1-1 1-1 2 1v1c0 3 2 2 3-1v-2h1v2l-1 1 2 4 1 2 1-4-1-2-1-2v-1a39 39 0 0 0 0-2l1 1h2l4 1c0-1 0-1 0 0h6l1-1h3s5-2 6-4h1v-1h1l3-2 1-1a36 36 0 0 0 6-7h1v-1l2-2 1-3v-4l-3 2-1 1v2h-1a34 34 0 0 1-10 10v1l-1 1h-1l-1 1-1 1-1 1h-2l-1 1h-1l-2 1h-5l-4-1h-1c0 1 0 0 0 0h-1l-1-2 1-3v-1l1-1v-3h-1l-2 2 1 1h-1v4h-4l-2-2-2-2v-1l-1-1v-4a675 675 0 0 0-1-5c-1-2-3-3-7-4l-3-2c-1-2 1-6 4-6l1-1-1-3-2-1c0-2 0-3 2-5l1-1v-1a7 7 0 0 0 1-6h-1v-1l-1-2v-1l-3-1-1-1a28 28 0 0 0-13 0h-2a50 50 0 0 1-9-1 28 28 0 0 1-11-4l-1-1-3-4h-1v-1h-1v-1l-1-1v-2l-1-1v-1a17 17 0 0 1 2-10 29 29 0 0 0 2-3l1-2 2-1v-1h2l1-1 1-1 4-1 5-2 2 1a68 68 0 0 0 7 3 95 95 0 0 0 12 4 40 40 0 0 1 6 2h1l2 1 2 1h3l2 1h3l3 1h5l1 1h1l5 1h7l2 1h1v-2h-1l1-1c1 1 1 1 2-4a204 204 0 0 1 1-3h-2l1-1 1 1 1-3a290 290 0 0 1 7-17h1v-1h1v-2l1-2 1-1v1l-1 3c1 2 2 0 2-2l-1-1 1-1h11l5 1 3 1h-1l-2 1-2 1c-1-1-1-1-2 2 0 3 0 3-1 2v-1l-1-4-3-1h-6l-1 2c1 4 0 4-1 3h-5v1h1v1c0 1 2 2 3 1l1 1h5v-4c1-2 1 0 1 2v4l1-2v-2 2c1 2 1 2 4 2l3-1-1 1-4 1h-2v1h-1c-1-2-2-2-3-1-1-1-1 2-1 5h-1v-5h-3c-1-2-2-3-3-2 0 0-1 0 0 0v-2c1-1 0-1 0 0l-2 1v3l-1 1v2l-1 1v3s0-1 0 0h1l1-2v-1h-1v-1h1v-1l1-1h-1v-2h1v2c-1 3-1 3 1 3l1 1 1 1h-3l-1-1-1 3a38 38 0 0 0-2 5l-1 4-1 3h4-4v2h2a27 27 0 0 0 7 1 202 202 0 0 0 18 0l3-1h6-7a68 68 0 0 1-14-1h-3l-3-1h28l2 1h-2l1 1h4l3 1h3l4-2a21 21 0 0 0 4-1l3-1h3l9-2 6-2h4a140 140 0 0 1 14-3 38 38 0 0 0 15-5l3-4 2-1v-2l1-1c1 0 1 0 0 0l1-2v-4a518 518 0 0 1 1-64v-3h1a194 194 0 0 1 0-1h2v-2h-1v-1h3v1h-1c0 1 0 2 1 1h2l-1-1v-1c0 1 0 0 0 0l-1-1 1 1 1 1h2-1 2v-2c0-2 1-3 2-1 1 0 1 0 0 0h1v1l1-1c-1 0 0-1 0 0h1l-1-1v-1h1v1c0 1 0 1 0 0h1v-1l1-1v1l1 1 1-1v-1h1v2l1-2c0-1 0-1 0 0l1-1v-1l3-1a107 107 0 0 1 13-4 293 293 0 0 1 17-7h-5l3-1h3l1-1h2l6-1h3l2-1c6-2 10-4 10-7 0-2 0-2-2-2l-3-1h-2l-1-1a56 56 0 0 1-7-2l-3-1a102 102 0 0 0-20-4 54 54 0 0 0-13-2h-7l2-1a179 179 0 0 0-25-4h-1l1 1a518 518 0 0 1-16-1 378 378 0 0 1-20-2m-3 1v1h1c1-1 0-2-1-1m3 1v1-1m54 4h2l2 1h-4l-1-1h1m-209 5v1l1-1h-1m-4 2h1-1m-8 3v1h1v-1h-1m1 0h1-1m284 2 1 2c0 1 0 1 0 0v-1l-1-1m-68 29c1 0 1 0 0 0 0-1 0-1 0 0m-6 1v1c0 1 0 1 0 0v-1m3 1-1 1v-1s0-1 0 0h1m2 1h1l-1-1v1m-24 10s0 1 0 0c-1 0 0 0 0 0m-1 1v-1 1m1 0 1 1h-1v-1m1 2v-1 1m-179 0v2-3 1m164 0v1a50 50 0 0 1-13 2l-2 1-3 1a180 180 0 0 0-15 7l-6 2a49 49 0 0 0-8 3h-1l-1 1a94 94 0 0 1-15 4h-1l-5 1a528 528 0 0 0 7-3 93 93 0 0 0 20-6l2-1a449 449 0 0 1 18-7 207 207 0 0 0 9-4 114 114 0 0 0 11-2h3m-152 1v1l-1 1c0 1 0 0 0 0v-1l1-1m153 3-1-1h1v1m14-1-1 2h-1v1-1l1-1v-1h1m0 3h-1l1-1v1m-19 1h1v1h-1 4l2 1h1v1l-6 1a67 67 0 0 0-6 1v1h-1v-1l-2 2-2 1-5 2-2 1v3c0 1 0 1 0 0-2-2-2-2-6 0l-4 1-5 2-2 1c-2 0-2 1-3 3l-1-1h-1l-6 1-6 2-13 3c-5 1-5 1-7 3l-2 2-1 1v2l-1 2s0 1 0 0v-1a47 47 0 0 0 1-3v-2l1-1v-2c1 0 1 0 0 0v-1h1v-2h1l-1-1h1l-1-1v-1h1c1 0 1 0 0 0h1v1l3-1h5l4-1 4-2h1v-1l1 1h2l1-1h1l2-1h2l1-1h7v-1h2v-1 1c1 1 1 0 2-1l1-2h2l2 1v-3 1h2v1h4v-1l2-2v1l1 1 2-2 3 1-1-2-1-1h-1c0-1 0 0 0 0v1h-2v-1h1l1-2 1-1v-1 1c0 2 1 3 2 1 0-1 2 0 1 1l1 1 1-1h1l1-1h2v-2l-1-1h1v2h1l1-1 1-1h1c0-1 0-1 0 0h1v-1h1m-5 0-1 1v-1h1m22 1v1c1 0 1 0 0 0v1-2c1 0 1 0 0 0m2 0v1-1m-27 2-1 1v-2h1v1m8-1c1 0 1 0 0 0m-1 1h1-1m20 0h-1 1m-25 1h1-1m24 0h-1c0 1 0 1 0 0h1m1 0v1h-1v1s-1 0 0 0v-1h-1 1v-1h1m-171 2 3 1 4 1 3 1c2 2 4 1 4-2v-1h2l2-1 1 1 6 2h5l3 1 1 1h2l5 1h2v1h2v1h5v1l1 1v-1l1-1v1l1 1h3l1 1v-1h1v1h3l1 1h-1l1 1c1 1 1 0 1-1h1l1 1v1l-1 3v1l-1-2h-10l-1-1-9-2 1 3 1 1v2c0 3 1 4 2 3v-1l2 1h7c1 1 5 0 6-1l1 1c2 2 6 3 6 2v-3l-1-1v-1l1-1v-1l1 1c0 2 1 3 1 1h1l2 1h1v3l-1 1v1l-1 2-3 2h-5l-4-2h-3l-4-1-1 2v2l-1-1 1-2-1-2-1 1v-1l-3-1-7-3v-4 5h-1v-5l-2 2v2-1l-1-1h-2l-1-1-1-1h-1l-1 1c0-1-2-3-3-2h-3c-1 1-2 1-5-1l-3-1-2-1-15-5-4-1-1-2-1-1v-1c0-2 3-3 6-2m178 0-2 4v4l1 1v2l1 1v2a89 89 0 0 0-1 10v1l-1 2-1 1 1-6v-5a14 14 0 0 0-1-8l1-7v-2h2m-46 1v1-1m-118 1v2l3 2 5 2 4 1 5 2v1h7c2 0 2-1 1-3l-2-2-1 1v-1h-3c-2 1-2 1-3-1s-1-2-2-1-3 1-7-1c-5-3-6-3-7-2m126-1v1h1l-1-1m-113 2v1-1m88 3-1 1v-1h1m-1 1h-1 1m1 2 1 1v-1h-1m-116 1 2 1 3 2 4 1 5 1 2 1 4 2 1 1h-2a57 57 0 0 1-8 3l-1-2c1-1 0-1 0 0l-1 1v-2c-1 2-1 2-1 0l-1-2v8l-1 1v6l1 3a449 449 0 0 0-4-13v1-2l-1-1-1 3c-1 4-1 4 1 5s3 2 2 4c0 3-2 3-6 1h-3v-1l1-2v-3h2c2 0 2 0 2-2s0-2-2-2c-3 0-3 0-3-3l-1-3v-5h1l-1-1 1-1h5m69 0h1l2 1h-3l-1-1h1m14 0v1-1m-41 1v3l1-1c0-2 0-3-1-2m42 0-1 1v-1h1m-8 0c3 0 2 1 0 1s-3 0-2-1h2m3 1h-1 1m-10 0h-1 1m14 1h-1 1c0-1 0 0 0 0m82 1c2 1 2 3 1 5-1 3-2 3-3 3l-1 2-2 1-1 1-1 1-3 1h-2v1h-1l-2 1-1-2-2-1v1h-2c0 2 0 2-2 1h-2l-1 1v4l-2-1-1 1-1 1h-2l-6 1h-2c-2 2-2 2-3 1h-11l-1 1-1-1h-3c-1 1-4 1-6-1h-1l-2-1h-1 2l4-2h5l1-1h4l2-1h1v1-1l1-4c0-3 0-3 2 1a21 21 0 0 1 1 4h1v-1h2l2 3v-2l-1-2 1-1 2-1 4-3v-1l1 1v1l2 5v-1l-1-3 2 3c0 2 2 2 3 0 1-1 0-3-2-3v-3h7l2 1 1-1 1-1 1-1v2l2 2v-3l-1-2 1 1h1v-1h4v-1c-1-2-1-2 1-2h1l1-1 2-2 4-2 1 1m-173 1c-1 0-1 0 0 0v-1 1m6 0v1l1-1h-1m3 1-1 1v1h-2c-2 0-3 0-2 2l2 2h2l1-3v-4 1m43 0v3l1-2c0-1 0-2-1-1m-52 1-1 1v-1h1m13 1v-1 1m1-1v1-1m-3 1h1-1m28 4 2 1 7 2 5 1 5 2a180 180 0 0 0-19-1h-2v-2c0-1 0-1 0 0l-2 2v-1c0-2 0-2-1-1v2h-1l-3-2c-1 0-1 0 0 0 1 1 2 0 3-2l2-1 2-1 2 1m41 0v-1 1m1 0v1-1c0-1 0-1 0 0m1 0v1-1s0-1 0 0m6 2v1-1m-86 3s0 1 0 0v-1 1m138 2 1 2-1-1v-1m45 0h-1 1m0 2v1-1c0-1 0-1 0 0m-60 0v1-1m2 0v1-1m8 0v1l1-1h-1m35 1v1l-1-1h1m-85 2v-1c0-1 0-1 0 0v1m101 0-1 1v6l-1 6c0 3-1 4-3 5l-2 1-1 1a36 36 0 0 0-7 4h-1l-5 1h-1l-2 1v-1h1l4-1 5-2v-1h1l2-1 1-1h1l1-1h1l2-1c1 0 2-2 1-4v-3l1-2v-2h1v-2l1-1v-4l1 1m-163 0-1 3v-1h-1v-1l2-1m4 1h7v1c0 2 1 2 1 1 1-2 2-2 3 0h1l1 3-1 2h-1l-3-1-1-1-1-2v-1l-1 2-1 1h-1l-1 1v-1l-2-1-2-1-1-1 3-2m-26 4v4-4l-1-1c1-3 1-3 1 1m51-3h-2 2m-8 2 4 1 4 1c4 1 5 1 4-1 0-2 0-2 1-1h1c-1 1-2 3-1 4l4 1h6l3 1 2 1 1-1 1-1v1c0 2 0 2 2 3l1 3c0 2-1 2-1 1l-2-2-1 1h-1c-1 1-2 0-3-1l-1-1h-8l-2-2h-1c0 1 0 1 0 0h-1v-1l-1-1-3 1h-1l-2-1c-2-1-3-2-4-1l-1-1c0-2 0-2-1-1v1l-1-1v-2l1-2 1 1m-38 0c0 1 1 2 2 1l1 1h8v2l1 2h-6c-7-2-7-2-8 0v2-5l-2-1 1-1v2h1v-1h1-1v-2h2m157 0c1 1 0 1-1 1v-2l1 1m-87 0 1 1-3 1v-1c-1-1 0-1 2-1m-10 1h-2 2m4 0v1-1m11 1v1-2l-1 1v1h1-1l-1-2h2v1m63 3 1 2c1 0 2 0 1-1v-2l3 2h2-1l-1 1-2 1-8 1-9 3c-2 0-4 0-5-2-1-1 0-2 1-1 2 1 2 0 2-2s0-2 0 0c1 2 1 2 1 0s1-2 1 1v1h2l4-1h2l1-1v-1 1l2 2-1-3c0-2 0-2 2-3l2 2m-1 0 1 1v-1h-1m-119 0-1 1 1-1m-26 2v1l1 2s-2-3-1-4v1m118 0h1l2 2c0 2 1 2 1 1v-1l1 1h1l2 1c0 2-2 2-3 1l-3-1c-1 2-3 2-5 1l-3-1-2-1v2l1 2-3 1h-4l-1-2c1-1 0-4-1-4 0 0 0-1 0 0l1-1 2 1h3l4-2 1 1h1l1-1 1 2v-1l1-2 1 1m25-1v1-1m-114 1-1 1v-1h1m18 2 1 2 2 1 6 1 3 1h2l2 1h4l5 1 3 1h1l1 1-4 1c-8 0-13-1-14-2h-3l-2-1h-3l-2-1h-2l-2-1-2-1h-7l-1-1c0-1-2-2-3-1h-1l-1-1-1-2h9l3 2c5 0 5 0 5-2 0-1 1-1 1 1m15-2v1c0 2 1 2 1 0l-1-1m11 0v2l1-1-1-1m9 0 1 1h-1v-1m-7 1v1l1-1h-1m21 0h-1 1m-92 2h2v1h-1l-1-1m104 0c-1 2 0 4 1 3v-2l-1-1m-104 1v1l-2-1 1-1 1 1m4 0 2 1h1l1-1c0-1 0-1 0 0l3 1 1-1v1h1v-1 1h2l2 1h1l1 2v-5 1h1v2c0 2 0 2 1 1v-1 1l1 2c2 1 1 2 0 1l-1 1-2-1h-1l-2-1-1-2h-6v-1l-1 1v-1h-3v-1h-1c1 0 0 0 0 0 0 1 0 1 0 0v-2 1m96-1 1 3v-1l-1-2m3 2v1-3 2m66-1h-1l1-1v1m-92 0v1-1m-52 7h-1l1-1v1m-8 1 1 1h1l1 1h2l1 1 2 1a44 44 0 0 0 5 1h1a184 184 0 0 1 15 3 38 38 0 0 0 2 1l4 1 2 1h2l1 1h2l1 1h3s0 1 0 0l1 1h2v1h-3v-1h-4l-1-1-3-1h-3l-2-1h-1a37 37 0 0 0-8-2h-1l-2-1h-2l-6-2h-3l-1-1h-1l-2-1-2-1-5-2-2-1h3m19 1-1 2-1-1-1-1h3m61 2h2l1 1h9l3 1h11c1 1-1 2-3 2h-5c-1 1-2 2-3 1h-2l-3-1-3-1h-2l-3-1-3-1h-3v1l-1-1c-2 0-2 0 0-1h5m38 0h-1 1m-62 0v1-1m59 1v1-2 1m-59 0h1-1m57 0-1 1v-1h1m-69 2c1 0 1 0 0 0-1-1-2 0-2 2v1-3h1a507 507 0 0 1 1 0m20 3-1-1 1 1m92 5-1 1-2 2a36 36 0 0 1-2 5v1h-1v1l-1 1v1l-1 1-1 1h-1l-1 2-4 3-1 1-1 1h-1l-2 2h-1l-1 1a43 43 0 0 0-4 2l-2 1h-1l-2 1 4-1h2l1-1h2a289 289 0 0 1 10-6l5-4 1-1h1v-1l1-1v-1l1-2 2-4 1-1v-1l1-1v-3h-1m-95 1h-1 1m1 0s0 1 0 0m-25 3h-1v2l-1 1v1a192 192 0 0 0 0 8v1l2 4 1 2 1 1h1l1 1 2 2 1-3v-1l1-2 1-2v-1l2-5v-2h1l-1-4v-1l-3-2h-8m38-1-1 1v-1h1m-5 2-1 1v1l1 2v6l-1 2v1a11 11 0 0 1-4 4l-1 1-6 2-4 1h-8c0 1 0 1 0 0h-1v2h1l2 1a32 32 0 0 0 11 0l1-1 5-2 6-6v-1h1v-1l2-7-1-5-3-1m-30 3v1l-1 1v6-6l1-3v1m5 2 1 1v1h-2v-3l1 1m5 2v1-1m-2 5v1h1v-1h-1m-5 2-1 2 2-2h-1m3 4h1v-1l-1 1m95 0-1 1-2 1-1 1h-2l-3 2h-2l-1 1a47 47 0 0 1-16 1h-1l-1 1h-4v-1h-1c-1 0-1 0 0 0v1h-1l-1-1h-2v-1h-1l1 1 2 1h-3v1l1 2h4l2 1 4-1h3c0-1 0-1 0 0h5l1-1h2s0-1 0 0l1-1c1 1 3 0 4-1l1-1h2l1-1h1v-1h2l2-1s0-1 0 0l1-1 1-1h1l1-1 1-1h-1m-97 6h-1v1l2-2-1 1m-1 1v1c1 0 0 1 0 0v2h-1 1v2-1h1v-2l1-1-1-1h-1m62 1h-1 1m-18 3v5l1-1 1 1v1l1 1c1-1 2 1 2 1v3l-1 2v1h-1v1l-2 1-2 1-3 2-3-1c-2-1-3 0-2 1l2 3h6l1-1 1-1h2v-1h1l1-1 1-1 1-2 1-1v-2l1-1v-1l-1-1 1-1c-1 0 0 0 0 0l-1-1v-2h-1l-1-1v-1h-1v-2h-2l-3-1m-47 9v1-1m-2 2v2h1v-1c-1 0-1 0 0 0v-1h1-2m1 2v1l1-1h-1m-1 1v1h-1l1 1h-1 1v-2m-3 8 1 1v-1h-1m0 3-1 2v1h-1l-1 1v3l1 1v-2l1-2 1-1v-3c0-1 0-1 0 0m-3 9h1-1m-5 11v1l-1 1v-1l1-1c0-1 0-1 0 0m2 0h-1 1m0 2h-1 1m-3 2-1 1v-1h1m0 2-1 1v-1h1m-9 16h1l-1 1c-2 0-2 2-2 5v3c0 1 1 2 2 1l1-1v-2c-1-1 0-5 1-5v1c-1 0-1 0 0 0v3l1-1v-1c0 1 0 1 0 0l1-1 1 2 1 2v1l-3 1-3 3h-1c-1 0-3-2-3-4l1-7v-1h3m-28 5a864 864 0 0 1-21 5l-4 1c-2 1-5 2-6 4l-4 1-4 2-4 2c-3 2-3 3-3 6l1 2c1 2-2 2-6 1-5 0-7 0-11 4-3 2 1 6 7 6 2 0 2 0 1-1l-1-1 2 2 2-1 3-1h4l2 1c0-1 0-1 0 0h1l1 1 1 1c0 1 3 2 5 1h1l2-3v-1l2-1 4-3 2-2 3-1a200 200 0 0 0 8-3l-4 3v1l-2 1-2 1-2 2-2 1-4 5-3 5-2 2-3 5c-2 2-2 2 1 5v2l-8 1h-7c-6 2-10 7-5 8l2 1h1l2 1c7 2 11 2 12-1 0-2 2-3 2-1h1l2 1 2-1 1-1h2l2-1 1-1 2 1 1 1 2-2c2-2 3-2 3-5h-1l-3 2-1 1-2-1-8-8 3-2 1-1 2-2a36 36 0 0 0 11-14l1-3 4-3h1a51 51 0 0 1 19 1 474 474 0 0 1 17 6c-1 0-1 0 0 0l-1 1h2v-1l-1-1 1-1v-1l-1-3 1-3v-1l1-1v-1h1c0-1 0-1 0 0v-1c1 0 1 0 0 0v-1c-1-1-1-2-2-1l-1 1h-1l-1 1v1h-2l-1 1v-1l-1-1-1 1v1-1h-1v-1h-1c-1 1-1 1 0 0h-1c0 1 0 1 0 0h-1s0-1 0 0h-1l-1-1c0 1 0 1 0 0h-1l-1-1c0 1 0 1 0 0h-2l-1-1c-1-3-7-4-11-3l-3 1a73 73 0 0 0-27 13h-1c-4-1-9-5-9-7l4-3h5l5-1 3-1 10-3 8-4 4-2c5-2 6-2 11 0l3 2a153 153 0 0 1 15 7l3 1 8 2c2 0 2 0-6-4a154 154 0 0 1-20-11 25 25 0 0 0-4-2c-3-1-5-2-7-1m29 3c1 0 1 0 0 0m-5 13-1 1h1l1-1h-1m0 1h-1l1 1h1l-1-1m-20 1h3v1h-2c0-1 0-1 0 0h-3v1c0-1 0-1 0 0v-1h-1l-3 1a56 56 0 0 0-7 0c4-2 13-3 13-2m33 4c-2 1-2 3-1 4l1 1-1 1c-3 4 0 12 4 12h1l-1 1-1 1h-1l-1 1h-9s-1 0 0 0h-1l-3-1h-2l-1-1h-2c0-1 0-1 0 0h-1l-3-1-1-1h-2l-4-1h-2l-1-1a35 35 0 0 1-4 0c-2-2-8 0-8 2v1l-1 2-2 3-1 1-1 3c-2 1-2 1-1 2v1l1-1 4-3 1-1v-1l1-1v-1l2-2v-1c0-1 2-2 5-1l2 1h4a11 11 0 0 1 2 1c1 0 0 0 0 0l-2 1-2 1-2 2-1 1v1l-1 1-1 1-1 1v2l-2 4v2l-1 1v6l-2 4v1l-1 1a411 411 0 0 1-5 15l-1 4c-1 1 0 4 1 5s5-1 5-2l1-1 1 1 1 1 2 2h1l4-1 3 3 3 1c1 2 5 0 5-2l1-1 1-2v-11a62 62 0 0 1 1-8 64 64 0 0 0 1-4l1-5a42 42 0 0 1 1-7v-1l1-2v-8l-2-3-1-1h1l1 1 2 2v1-3l4 1h11l3-1 1-1 1-1 2-1 2-1a4839 4839 0 0 1 3-4c2 0 1-2-1-2l-3-2-1-4c-1-6-4-10-7-8m2 3 2 6 1 3 1 1-1-1h-2c-1 1-2-2-2-5v-3c-1-2 0-2 1-1m-10 5c-1 0-1 1 0 0 0-1 0 0 0 0m-71 3h-1v1h-1l4 2v-1l-1-1c1 0 1 0 0 0v-1h-1m-7 1h-1 2-1m93 3h-1v-1l1 1m-32 8v1l1 1h-1l-2 1h-1l-1 1h-1 1l2 1h-2l-1 2-2 2v3l3-4h1l1-1h1v12h-1v1l1-1v4c-1 0-1 0 0 0v4-3l1-1v-3h1v-1h-1l1-1a108 108 0 0 1 1-9v-4 1h-1v-2h1c0-1 0-1 0 0v1h1v10l1-3v-2l1-4v-5l1 1 2 2v4l-1 3v3l-1 3-2 8v1-1c-2-1-3 0-2 2v4a237 237 0 0 0-1 5v1-11a92 92 0 0 1 0-6l-1 7v1l-1 1v2c0-1 0-1 0 0v1l-1 1v12l-1 1 1 2h-1c-1 1 1 3 2 4l-1 2c-2 0-5-2-5-4 0-3-2-3-4-1-1 2-3 1-3-1h-1v-2l1-2 1-4a50 50 0 0 1 1-8c0-2 0-2-1 0a49 49 0 0 1-2 5v2l-1 1-3 5h-1c1 1-2 4-2 4v-2a86 86 0 0 0 0-3l1-1c-1 0-1 0 0 0l2-4 1-2 1-1v-2l1-1v-2l1-1v-1l1-1v-1l1-4v1l-1 2v1-4l1-1c0-1 0-1 0 0h1v-6h1v-1a20 20 0 0 1 2-8v-1s0-1 0 0v-1h1v-1c1 0 1 0 0 0h1v-1h1v-1l1-1h1l2-1h2m-7 1-1 1 1-1c0-1 1-1 0 0m11 2v1l-1-2v-1l1 1v1m-5 0h-1 1m5 2-1 1v-1l1-1v1m6 0v1-1m-21 1v1s-1 0 0 0v-1c1 0 1 0 0 0m0 2-1 1c1 0 0 0 0 0v2l-1 1a10 10 0 0 1 0 2l-1 2h-1 1v-2l1-4s1 0 0 0h1v-2h1m12 0-1 1v-1h1m-4 1-1 1-1 1v1l-1 1v5h1l1-3h1v1c-1 1-1 1 0 0l1-1c0-1 0-1 0 0h-1l1-1v-4c0-1 0-2-1-1m3 1v2-2m-8 3v-1 1m7 3-1 1h1v-1m2 1-1 1v-1c1 0 1 0 0 0v-1h1v1m8 0v-1 1m-51 3v1l2-1h1l-1-1-2 1m32 2v4l1-3c0-1 0-2-1-1m4 2c1 0 1 0 0 0v3l-1 1h1v-3h1v-1c0 1 0 1 0 0h-1m-4 2-1 3-1 4 1 2a26 26 0 0 0 1-8v-1m-5 3v1h1l-1-1m12 7h1v-1l-1 1m-6 0v1l1-1h-1m-8 3-1 2v1l-1 2v-1c2-1 3-4 2-4m8 1v1-1m8 4h-1 1m1 1v1l-1-1c-1 0-1 0 0 0h1m3 2a129 129 0 0 0-1 0v-1l1-1v2m-3 1c0 2 0 2-1 1v-2l1 1m-2 1v1-1"/>
    <path fill="#b0afb0" d="M93 13h-4l1 1h3l2-1h1a175 175 0 0 1-3 0m-36 1v1l-1 3v1l1-1 1-2v-2 1l1-1v-1 1l-1-1-1 1m30-1v1h-3v3l1-1 1-1 1-2m12 0c0 1 0 1 0 0 1 0 0 0 0 0m1 0 2 1-1-1h-1m3 1 1 1 3 2 2 1-4-4h-2m6 5 1 2 1 2v1-3c0-1-1-3-2-2m2 5v1h1l-1-1m100 1h2l2 1-1-1h-3M65 26l-1 2 1-1 1-1h-1m47 0-1 2v3l1-1v-4m-3 8-1 1-1 1v3l3-4v-1h-1m199 8h5-5m8 1 2 1v-1h-2m3 0 1 1v-1h-1m3 1h1-1m2 0h1c1 0 1 0 0 0h-1m3 0-1 1h3l-2-1m4 1c-1 0-1 0 0 0h7-1a216 216 0 0 1-6 0m7 0h3-3m5 0 1 1a359 359 0 0 0-1-1m-2 0 1 1v-1h-1m-56 7 1 1 2 2 1 1 2 1a569 569 0 0 1 12 6c5 2 11 2 11 1h-1a36 36 0 0 1-15-4l-11-7-2-1m30 12 3 1 3-1h-6m64 1-5 2h2l1-1h1c0 1 0 0 0 0 0-1 0-1 0 0h1c0-1 0-1 0 0h1l1-1h-2m-172 4h8a100 100 0 0 1 33 5l4 1-3-1-4-2a74 74 0 0 0-15-3h-23m2 6a99 99 0 0 0-27 4l-3 2h1v-1h5a43 43 0 0 1 5-2h2l5-1a62 62 0 0 1 12-1 64 64 0 0 1 19 0h3l-3-1h-19m43 0 1 1h1l2 1 1 1 3 1-2-2a562 562 0 0 1-6-2m-21 1 1 1 6 1h3l-3-1-7-1M97 87l3 1h-1v-1h-2m169 17-1 1h-1c0 1 0 1 0 0h-1v1h-1c-1 0-1 0 0 0h2a189 189 0 0 1 2-2m-86 15h-1l4 1-2-1h-1m121 0v2h1l-1-2m-79 2h-1l-1 1h-3l-2 1h-1l-2 1h-2a43 43 0 0 0 8-1l2-1h3c-1 0 0 0 0 0 1-1 1-2-1-1m-36 1 1 1h3l-2-1h-2m5 2v-1 1m2 0 1 1v-1h-1m2 1h2l-2-1v1m4 0v1h4l-4-1m-182 7v5-3h1l-1-1c1 0 1 0 0 0v-1h1s0-1 0 0l-1-1v1m27 0 1 1c1 0 2-1 0-1h-1m3 0 2 1h4l-6-1m-4 1 1-1-1 1m-5 0-1 1h3l1-1h1-4m-5 1c1 1 0 1-1 1v2h1v-1l2-1 1-1h-3m21 0 1 1h2l1 1-1-1-1-1h-2m4 2 1 1v-1h-1m244 1-1 1v4l1-2v-2h1v-1h-1m-243 0 1 3 1 1v-2h-1 1l-1-1-1-1m243 6v1-1m-241 1a20 20 0 0 0-1 3h1v2-1l1-3-1-1m241 1v1-2 1m0 2 1 1v-1h-1m-282 0-1 2v1-1c1 0 2-1 1-2m282 1v1l1-1h-1m0 1h1-1m0 1v1c1 0 1 0 0 0v-1h1-1m-1 3v1l1-1h-1m-186 7 1 1v-1h-1m165 13h1-1m-169 4-1 1-1 1-2 1-1 2-1 1-1 1v2l1-1a1163 1163 0 0 0 4-5l4-2 1-1h-3m0 2-3 3-1 1-1 1v2l1-1 1-2 3-3 1-1h1-2m65 4v1c2 0 4 0 2-1h-2m5 2h1l2 1-1-1a279 279 0 0 1-2 0m3 0v1l1-1h-1m2 1h1v-1l-1 1m1 0h1-1m3 0h5-5m10 0h2l3 1h2c0-1 0 0 0 0l1 1 1-1-1-1h-8m-4 0h1-1m97 6v1-1l1-1-1 1m-126 11v3a14 14 0 0 0 2 3v1l1 1v1l3 3 1 1 1 2h1l-2-3-1-1-2-3-1-1-1-1-1-2v-2l-1-1v-1m164 3a16 16 0 0 0-3 2l-2 4h1l2-2v-2h1c0 1 0 0 0 0v-1 1l2-1-1-1c1 0 0 0 0 0m-98 8v1l1 1h5-1l-1-1h-1l-1-1-1 1v-1h-1m22 0h-1v1h2v-1h-1m-5 0-1 1h1c0-1 0-1 0 0h2v-1h-2m-3 1h2-2c0-1 0-1 0 0m-3 0c-1 0-2 1 0 1l2-1h-2m-3 1h1-1m127 1c1 0 0 0 0 0-2 0-2 1 0 2 2 0 7 4 7 5l1 1 1 2v3h1l-1-6-2-2-1-1-1-2h-2v-1l-2-1h-1m-149 6v3l1-1a182 182 0 0 1 0-2h-1m106 3h2c1 0 1 0 0 0h-2m-2 1h1-1m55 5v1-1m0 1v3-3m-1 5a121 121 0 0 0-1 4v3l2-8-1 1m-4 9-1 2-1 1-1 1 2-1 1-1 1-2h-1m-4 5-1 1c1 1 2 0 2-1h-1m-3 2-1 1h-1l-1 1v1l2-1 1-1 2-1h-2m-11 3h-1l-1 1c-1 0-1 0 0 0h5v-1h1-4m-141 3 1 1v-1l-1-1v1m-11 17h1-1m-5 9v1c1 0 0 0 0 0v-1m-32 3v1-1s-1 0 0 0m45 5 1 2 1-2h-2m-1 3v1l-1 1v2l1-3 1-1c1 0 1-1 0 0v-1l-1 1m-13 1 1 1-1-1m11 3v1l-1 2 1 1v-2l1-2h-1m9 3 1 1 2 1h1l5 4h1l2 1 4 2a208 208 0 0 0 47 15 318 318 0 0 0-30-9 239 239 0 0 1-33-15m-11 2-1 1-1 1c1 0 1 0 0 0h-1v1l1 1 3-3v-2l-1 1m-17 0v1-1m-3 7h1c0 1 0 0 0 0h-1m-16 5h1v-1l-1 1m21 3v2l2-2-1-1-1 1m-15 0v1-1l1-1-1 1m-78 1v-1 1m-18 1c1 0 1 0 0 0l1 1h2-1l-1-1c0 1 0 1 0 0h-1m4 1h1-1m-11 1v1h1-1v-1m11 0 1 1v1-2h-1m136 0v1h1l3 2 2 1 1 1 2 1h2l1 1a83 83 0 0 0 5 2 142 142 0 0 0 16 4 127 127 0 0 1-18-6 67 67 0 0 1-13-6l-2-1m-135 2v1h1v-1h-1m244 8h5l-2-1-3 1m-185 2h1v1l-1-1m-7 0h-1c-1 0-4 2-6 5l-1 7v4l-1 2-2 7-1 3v5l-1 5v1-1a61 61 0 0 1 2-9l1-8 2-4 1-5 1-6c2-4 3-5 6-5h1v-1h-1m119 2 1 1h1l1 1h4l-1-1a158 158 0 0 1-6-1m-118 1-1 1h2c0-1 0 0 0 0v6a164 164 0 0 1-1 9l1-2v-4l1-8-1-2h-1m-3 3v1h1l-1-1c1 0 1 0 0 0m0 2h1l-1-1v1m-2 0-1 1h1v-1m2 0a27 27 0 0 0 0 5v1l1-1v-4l-1-1m-2 6-1 3v2a713 713 0 0 0-3 7 356 356 0 0 1-2 12l-1 6v2-1s0-1 0 0l1-1 1-7v-6h1v-2c1-4 3-9 5-8v-2l1-1v-2l-2 3v-3a127 127 0 0 1 0-2m117 0 2 1s1 0 0 0l1-1v1l4 2a93 93 0 0 1 7 2 138 138 0 0 1 7 1 76 76 0 0 0 6 1 154 154 0 0 0 36 1c1 0 1-1-1-1l-5 1h-4v1-1h-3a155 155 0 0 1-50-8m-115 1h1v-1l-1 1m-48 4-2 3h-1l1 1 2-3v-1h1v-1h1c0-1-1-1-2 1m8-1h1v-1l-1 1m-26 0v1-1m14 4 1 1-1-1m60 7v2l1-1-1-1m-1 4v6l1 1v-3l-1-1 1-2v-2l-1 1m-20 2v1-1m-3 1 1 1c1 1 1 0 0 0v-1h-1m14 2v2l-1 1v2l1-3v-2m-9 2-1 2-1 3v1l-1 1h1l1-1v-1l1-2v-4 1m1-1 1 3v-2s0-1 0 0v-1h-1m17 2v3s-1 0 0 0h1v-3c0-2 0-1-1 0m-10 2v1h1v-1h-1c1 0 0 0 0 0m-16 1h1l-1-1v1m18 11 1 1h1v-1h-2"/>
    <path fill="#696767" d="m72 4-4 1-1 1c0-1 0 0 0 0v1h1l1-1h4V5s-1 0 0 0h1V4h1l-1 1h2c2 0 3 0 2-1h-1c0 1 0 1 0 0h-5m7 0v1l1 1h2l1-1-2-1h-2m4 2v1l4 3v1s1 0 0 0h1V9h-1V8l-4-2M66 7h-1 1m-4 2-1 1h2V9h-1m26 3v1-1M56 22v1c0-1 0-1 0 0v1h2l-1-1v-1h-1m151 2h3-3M68 24l-1 1 2-1h-1m-10 1c-1 0-1 0 0 0v1l1 2 4 2v-2l-2-1-2-1-1-1c0-1 0-1 0 0m2 2h-1 1m4 3v1-2 1m23 1-2 2h1c0-2 2-3 2-2v1h-1s0 1 0 0l5 1h1l2 1 1 1c0-3-6-5-9-4m0 2v2-2m160 0 1 1 2 1h5l-2-1h-2l-4-1M85 34v1h1c-1 0-1 0 0 0v1h1v2-1l1-1h-1c1 0 0-1 0 0l-1-2h-1m185 3h-4 2l2 1h7-2l2-1 4 1-5-1a109 109 0 0 1-6 0M88 37l1 1v1h-1l1 1 2 1v-1h1l-4-3m193 1-1 1h-1 2l1-1h-1m2 1h1l-1-1v1m2-1c-1 0-1 0 0 0l1 1h2a279 279 0 0 1 2 0l-5-1m-7 0h1-1m15 1 1 1 4 1c2 0 4 0 3-1h1l-3-1h-6m-192 2h-6l-1 2c1 0 8 0 7-1h1l-1-1m-14 2-2 1c-3 0-3 1-3 2 1 0 6-1 7-3 1 0 1 0 0 0h-2m280 5v1c0 1 0 1 0 0v-1m1 1 2 1h1l3 1h2l1 1a174 174 0 0 1 6 1c2 1 6 3 5 4l1 1v-3h-1l-1-1-2-1h1v1l-1-1h-1v-1h1l-4-1h-2l-1-1h-1l-5-1h-4m22 9v1-1m-4 4v1l1-1h-1m-15 5h-3 3v-1 1m-4 0h-1l-3 1h-2l-1 1h5c2-1 3-1 2-2m-2 1h-1 1M93 85l2 1h-1l-1-1m28 13h1v-1l-1 1m6 2 1 1 2 1 2 1h2l-2-1-2-2h-3m151 1-2 1-3 1h4l2-1c2 0 2 0 1-1h-2m-2 2v-1 1m-4 0-1 1h2v-1h-1m-129 4h2l1 1a48 48 0 0 1 5 2h2-1l-1-1h2a219 219 0 0 0-8-2h-2m113 1 1 1h1l-2-1m-103 1h1l1 1h1-1l-2-1m4 2h1v1c1 0 1 0 0 0v-1h-1m-1 0c-1 0-1 0 0 0h1-1m95 0h-2l-1 1-2 1h1-1v1l4-1 1-1h1v-1h-1m-91 0v1l1 1h2s0-1 0 0l-3-2h-1 1m6 2v1l1 1h2l3 1 1 1v-1h1a28 28 0 0 0-7-2l-1-1m77 1h-1l1 1v-1h2v-1l-2 1m60 0-1 1v3l1-1h-1 1v-3m-63 1h-1l-8 3h3v-1c1 1 3 0 4-1v-1 1s1 0 0 0h1l3-1h-2c0-1 0-1 0 0m-10 3s0 1 0 0v1-1m-204 4-1 1h-1v2l1-1h1c-1 0-1 0 0 0h1l2-1h-1 2c1-1 1 0 0 0l3 1 1 1h1v1l1 4 1 3v-3c1-1 0-3-1-4 1-1-1-3-2-2l-1-1-1 1v-1l-6-1m275 1h1-1m1 2h1-1v2c0-1 0 0 0 0l1 1c0-1 0-1 0 0l-1 1h1c1 0 1 0 0 0v-4l-1-1v1m-279 0h-2 2m185 0v1-1m-1 2h1-1m-188 0 1 1v-1h-1m188 2h-1 1m95 1v4h1v-1h-1l1-1v-2h-1m-96 2v1-1m0 2v1-2 1m-170 0h1v-1l-1 1m266 0h1-1m-285 6 1 1-1-1v-1 1m1 2 2 3 1 1c-1 1-1 1 0 0h3l-2-1-2-2-1-1h-1m2 2h-1 1m21 6c-1 0-2 2-1 3a187 187 0 0 1 3 2l1 1v-1h-1l-3-3h1c-1 1 2 3 2 2 1 0 1 0 0 0l-2-1c0-1 1-2 2-1l2 1h1c0-1-3-4-5-3m15 2-2 2-2 1v1h1c4-2 6-3 5-4h-2m-12 3v1h1l-1-1m2 0v1c1 0 1 0 0 0v1l4-1h-1v-1h-3m254 2v2l1-1c0-2-1-3-1-1m-103 0h1l-1-1v1m-82 1v1-1m82 0v1l1-1h-1m-1 2v1l-1 1c0 1 0 1 0 0l3-1-1-1h-1m-157 1-2 1c-2 1-3 2-1 2l5-3h-2m260 0 1 1v-1h1-1v-1l-1 1m-102 2v1-2 1m102 1-1 1-1 1 3-1c0-1 0-1 0 0h-1v-1l1-1-1 1m-104 0v1-1c0-1 0 0 0 0m0 1v2-1h1v-1h-1m98 3h-1l-1 1v1l1-1 2-1h-1m-99 0-1 3v1-1c1 0 1 0 0 0l1-2v-1m-76 1h-1 1c0-1 0 0 0 0m76 0 1 1v-1h-1m-80 1-5 3 1-1h1l2-1a13 13 0 0 1 3-1h-2m9 1-1 1h-2 1v2l1-1h2l1 1 1-1-3-2m13 1v1h2l3 1-2-1-1-1h-2m58 0v1h-2v1h-1 1v1l-1 2v1l-1 2v2h-1v4h1v-2l1-2 1-1v-4h1v-1l-1-1h1l1-1v-2m-87 2-1 1 1-1c1-1 1-1 0 0m8 0c-1 0-1 0 0 0l-1 1c-2 1-1 2 1 1l3-1h1-2l-2-1m7 0-1 1v1l2-2h-1m-11 2v1h2l-1-1h-1c-1 0-1 0 0 0m39 1h-3l5 1h2l1 1v-1h-2 1c2 0 1 0-1-1a154 154 0 0 1-3 0m-17 0h1s0-1 0 0h-1m4 1h-1v1h-1v1l-5-1h-1v1h3l1 1h4c1 1 1 1 1-1v-3l-1 1m19 0h2-2c-1 0-1 0 0 0m3 1v1-1c-1-1-1-1 0 0m1 0 1 1h-1 3l-1-1h-2m-3 0h1c0 1 0 0 0 0h-1m-16 1v2l2 1 4 1a51 51 0 0 1 5 1h6l-2-1c-3 1-5 0-5-2l-1-1h-4c-1 2-3 1-3 0h-1v-1h-1m25 0h-1v1h1a6 6 0 0 1 2 1 148 148 0 0 0 3 0l-4-2h-1m108 1-1 1v1h1l1-1-1-1m-55 5h-2c-2 0-2 1-1 1v1l1-1h12-2l-1-1h-5v1-1h-2m-5 1h1s0-1 0 0l-1-1v1m-25 0-1 1v1l-1 1v4h-1c-1 1-2 2-1 3v3h-1v-1 1h-1 1l1 2 1-4v-1l1-1v-3l1-1v-2l1-1v-1 1l1 1v-1l-1-1v-1m-6 1 1 1h3v-1h-4m30 0c1 0 1 0 0 0m27 0-1 1h-1v1h2l7-1-3-1h-4m11 0c-1 0-1 0 0 0m-2 0h1-1m-1 0-1 1 2-1h-1m-44 0-1 1v1h-2l-1-1h-2c0 1 0 1 0 0h-2l3 1 2 1h3l2-1c0-2 0-2-2-2m11 1h-1l-2 1h12-1l-7-1h-1m79 0v1l1-1h-1m53 11h-3v1h8-1 3c0-1 0-1 0 0h-1l1 1 2 1 2-1h-1v-1c0-1-7-2-10-1m-164 2v1l1 1-1 1-1 1v2l1-1v-1l1-2v-2h-1m154 1c-1 0-1 0 0 0h1-1m21 0 1 1 1 1 1 1h1v10l2-1v-3l-2-5v-1c0-1-3-4-4-3m-76 1h-1l-2 2h3v-2m-101 4v1h-1 1v1l-1 1v1c-1 0-1 0 0 0v1h-1 1c0 1 0 0 0 0h1c0 1 0 1 0 0h1l-1-1v-1h1v-3c1 0 1 0 0 0h-1m92 1-3 1v1l1-1v1l-1 1h-1l2-1 2-1s1 0 0 0l1-1h-1m-6 3h1v1-1h-1m-39 0v1l-1-1-2 1v-1l-2 1s1 0 0 0h-1c1 1 1 1 0 0l-3 3v1l1 1v-1l1-1 1-1 1-1 1-1h4v-1c1 0 1 0 0 0m37 0v1h2v-1 1l-1-1h-1m-84 0v1-1m48 1c0 1 0 1 0 0 1 0 1 0 0 0m34 0h-2l-2 1v1h3l1-1h1l-1-1m-41 2h-1v-1l1 1m-42 0s0 1 0 0h1v-1l-1 1m-2 0v2h1v-2h-1m184 2h1-1m-184 1-1 1v4c1 0 0 0 0 0v1l-1 1v-1 4c0-1 0 0 0 0l1-2 1-1v-2l1-1v-3l-1-1m144 1c-1 1 0 5 1 8l1-1-1-4v-3l-1-1v1m-103 1v1l1-1h-1m-40 1h-1 1m143 1v1-1m-145 3h-1 1m152 0 3 1-3-1m-5 2-1 2h1v-2m-107 1 1 1v-1h-1m-42 1h-1v1h1l1-1-1-1h1l-1 1m41 1-2 1h1l1 1 1-1v-2l-1 1m-41 1h1s0-1 0 0v-1l-1 1m0 0h-1 1s0-1 0 0m-2 1v1l-1 2v1l1 1h1-1l1-1c1 0 0 0 0 0l-1-1v-1 1-1l1-1v-1h-1m2 1v1-1m-3 5v3h1v-2l-1-1m174 2-1 2h-1 1v1l1-1h2c2-1 1-1 0-1h-1v-1h1-2m3 0 1 1 1 1v1-2l-1-1h-1m2 2h1l1 2h1l-1-1c0-1-2-3-2-1m-180 0-1 1h1v2h1v-2l-1-1m181 1v2c0 2-1 5-4 6l-1 2v1c1 0 4-2 6-5l1-3v-2l-1 2-1 3v-6m-181 1h-1l-1 1c-1 1 0 3 1 2v-1c-1 0-1 0 0 0l1-2m172 2h-1c-1 0 1 5 3 7v2l-1 1 2-1v-1h-1 1v-1c-2-2-2-4-2-6l-1-1c0-1 0-1 0 0m-172 0c0 1 0 1 0 0m142 0v1l1-1h-1m-143 2v1l-1 2v1l-1-1h-1c0-1 0-1 0 0l-1 2v3l1-2h1v3a243 243 0 0 1 2-9m-2 1-1 1 1-1m149 3c0 1 0 1 0 0 1 0 0 0 0 0m-148 1h-2 2m-4 4-1 4v1l1-1v-4m158 0c-2 1 3 3 7 3h2v-2h-6l-3-1m-110 2h1-1c0-1 0-1 0 0m-46 0v1-1s0-1 0 0m-1 2h1-1c0-1 0-1 0 0m-2 5h1l-1-1v1m-1 4v1l-1 2v1l1-2v-2c1-1 1-1 0 0m-2 0v1l1-1h-1m53 4v2l1-1v-2l-1 1m-13 1h1-1m2 1h1-1c0-1-1-1 0 0m0 1-1-1 1 1m10 5v3-1l1-2v1-3l-1-1v3m-17-2h1-1m0 1 1 1v-1h-1m0 1v1-2 1m18 2s0 1 0 0h1l-1-1v1m-15 1-1 1 1-1m1 0s0 1 0 0c1 0 1 0 0 0m14 0h-1 1c1 0 0 0 0 0m-15 1c0 1 0 1 0 0 1 0 1 0 0 0m15 0h-1v1l2-1h-1m-52 1h2-2m4 1s0 1 0 0 0-1 0 0m-11 0v1-1m58 1v1l1 2v-3h-1m-47 0h1-1m-12 2c0 1 0 1 0 0m36 1v1-1m-36 0v1h1l-1-1m1 1-1 1 1-1m11 0v1-1m1 1c1 0 1 0 0 0m32 1v1-1m-46 0 1 1 1-1h-2m0 1v1h-1v1h1l1-1-1-1m44 1h1v-1l-1 1m-15 0h2-2m16 0 1 1v-1h-1m0 1v1-1m-46 3c0-1-1 0 0 0h1v-1l-1 1m-1 0v1-1m0 1h1-1m25 2v1-1m20 0 1 1v-1h-1m-22 1h1-1m3 0h-1 1m-28 0v1h1c-1 0-1 0 0 0v1h-1 1c1 0 1 0 0 0l1-1h-1v-1 1l-1-1m38 1h1l-1-1v1m1 0h1-1m9 0c1 0 1 0 0 0m-1 0v1h1l-1-1m-8 0v1h1l-1-1h-1 1m-40 3h1v1h-1s0 1 0 0l-1 1h2v-1s1 0 0 0v-1c0 1 0 0 0 0h-1m52 3h1-1v1h-1l-1 1v1l-1-1-2 2v1c0-1 0 0 0 0h1v-1l2-1 1-1 2-2h-1m-19 1v1l1-1h-1m-2 1v-1 1m7 0v-1 1m-5 0h-1 1m5 1s0 1 0 0 0-1 0 0m-16 1h1v-1l-1 1m1-1 1 1c0 1 0 1 0 0l-1-1m26 1v-1 1m-11 0 1 1-1-1m-15 1h1-1m23 2c-1 0-1 0 0 0 0 1 0 1 0 0s0-1 0 0m-96 2h1-1m79 0h1-1m0 1h-1 1c1 0 0 0 0 0m11 0 1 1-1-1-2 1v1h1l1-1h1l1-1h-2m-10 1h1-1m-108 0 1 1h1l-2-1m6 0-1 2h-1 2v-1c0 1 0 0 0 0h1v1c1 0 1 0 0 0v-2h-1m1 1 1 1 1-1h-2m17 2v1h1v-1h-1m-3 1v1c0-1 1 0 0 0-1 1 0 1 1 1v-1c1-1 0-1-1-1m-4 1 1 1 1-1h-1c0 1 0 1 0 0h-1m2 0 1 1-1-1c1 0 0 0 0 0m46 8h-1v1h1v-1h1-1m8 0h1-1m-9 3h1-1m7 0v1-1m-8 1v1h-1 2v-1h-1m9 1v1-1m0 1v4-4m-5 2s0 1 0 0v1-1m-8 1v1-1m15 1-1 1h1v-1m-17 0v2l-1 2v3l-1 2v3l1-1v-5h1v-1a37 37 0 0 0 0-4v-1m18 3v2l1-1h1l-1-2-1 1m-15 1v-1 1m-1-1v1h-1v2l-1 1 1-1v-1 1h1v-3m-1 1s0 1 0 0c-1 0-1 0 0 0m6 2v1l-1 1v2-1h1l1-2-1-1m-7 2v1h1v-2c0 1 0 0 0 0l-1 1m17 1v2h1c0 2 0 1 0 0v-3l-1 1m-46-1h-1v1c-1 0 0 0 0 0h2l-1-1m-30 1h1-1m22 0v1h1v1h1s0-1 0 0h2s0-1 0 0v-1h-1v1l-1-1-1-1h-1m4 1h1l-1-1v1m33 0c-1 0 0 0 0 0v-1 1m-1 0v1c0-1 0-1 0 0l-1 4h1a91 91 0 0 1 0-5m16 1c-1 0 0 0 0 0s0 1 0 0m-68 1v1h1v-1h-1m58 1v1l1-1v-1l-1 1m-54 0h-1l2 1h-1v-1h1v-1h-1v1m2-1v2h-1 1v-2m1 1v1l1-1h-1m64 0v1h-1v1h1v-2m-7 2h1l-1-1v1m-7 1h1v1-1l-1-1v1m4 0v1-1c1 0 1 0 0 0m9 0v1l-1 1h2v-2h-1l1-1-1 1m-14 1c0 1 0 0 0 0l1-1-1 1m8-1v1-1m0 2v-1 1m-9 0v1-2 1m2 0h1v-1l-1 1m-1 0v1c-1-1-1 0 0 0l-1 2 1 1 1-1v-3c-1 0-1 0 0 0h-1m-3 2v1s1 0 0 0v-1l1 1h-1c1 0 0 0 0 0l-1 2v3l1-1v-2c-1 0 0 0 0 0v-1c1 1 1 0 1-1v-1h-1m-3 0v1h-1l-1 2 1 1v1l-1 1h1v-1a365 365 0 0 0 1-5m11 0-1 1v2l1-3m3 1a55 55 0 0 1 0 3v-4 1m-9 2a302 302 0 0 0 0 2v-1l1-1c-1 0-1 0 0 0l-1-1v1m6 1v1-1c0-1 0 0 0 0m0 0v3l1-2v-2l-1 1m3 1v-1 1m-12 1v1-1m-5 1h1l-1-1v1m7 1v6c1 0 1 0 0 0v2h1l3-1h-1v1l-1-1h-1v-1c1 0 1 0 0 0v-1c-1 0-1 0 0 0l1-1v-1h-1v-3h1-1l-1-1v1m6 0v1l-1 2 1-1v-3 1m-1 0v1-1m1 1v4l1-2v-2h-1m-2 2v2h-1c1 1 1 0 1-2 0 0 0-1 0 0m1 2v-1 1m-18 2h1-1m10-1v1h-1 1v-1c-1 0-1 0 0 0m11 1h1-1m-12 1v1l-1 1 1 1h1v-3h-1m10 2v-1 1m2 0v1c1 1 1 0 1-1h-1m5 1h1-1v2h-1l1 1h-1c1 0 1 0 0 0l-1 3v1c0-1 0-1 0 0v-1h1v-1l1-2 1-3h-1m-1 4s0 1 0 0c1 0 1 0 0 0m-11 2 3 1v-1 1l1-1h-4m8 1h1v-1l-1 1"/>
    <path fill="#848484" d="M77 4c0 1 0 1 0 0 1 0 0 0 0 0m1 0v1l1 1V4h-1m5 1 1 1h-1V5M67 5v1l1-1h-1m-1 1h-1l1 1 1-1h-1m4 0h2-2m15 0 2 2v1-2l-2-1M66 7h-2l-1 1c-3 2-6 6-4 6l1-2a25 25 0 0 1 8-5h-2m-3 2v1h-2l1-1h1m25 1v1l1-1h-1m-1 1h1-1M58 24v1l1 1v-1l-1-1m-1 0 1 1-1-1m159 2h1l2 1-1-1h-2M63 30v1h1v-1h-1m169 1h2-2m-121 0-1 2h1v-2m130 1 1 1 3 1h2l-1-1-2-1h-3m48 7c1 0 1 0 0 0l2 1h1v-1h1l-2-1-2 1M92 41l1 1h1c-1 0-1-1 0 0l1-1h-2l-1-1v1m209-1v1h2v-1a470 470 0 0 1-2 0m-199 1c-1 0-1 0 0 0v1h1v-1h-1m204 0v1l1-1h-1M68 43h1c1 0 1 0 0 0h-1m246 0h2-2M81 45h-5 6-1m286 4s0 1 0 0m1 0v1s1 0 0 0h1l-1-1h1-1m3 1c-1 0-1 0 0 0h1-1c0-1 0-1 0 0m1 1h3-3m7 0h2-2m1 1v1h2l-1-1c0 1 0 1 0 0h-1m7 2 2 1-2-2v1m1 3h1-1c0-1 0 0 0 0m1 1v1l-1 1-1 1-3 2-3 2h-1 1l6-2c2-2 3-3 3-5l-1-1v1m-1 1h1v-1l-1 1m-1 3-1 1v-1h1m-19 5c-1 0-1 0 0 0m1 1h-2c-1 1-1 1 0 0h2c1-1 1-1 0 0M101 89h3-2l-1-1v1m14 6h1-1m7 3a8 8 0 0 1 3 1l1 1h1v-1l-3-1h-2m151 4v1h-2 3l1-1h-2m-12 4-2 1-2 1v1l-1-1-1 1-1 1 4-1 4-3h-1m-9 4v1l1-1h-1m1 1h-1 2-1m-5 1 1-1-1 1m3 0h1-1m-88 0v1l1 1h1l1-1h-1l-2-1m78 2v1h1c1 0 1 0 0 0v-1h-1m2 1v-1 1m-5 1-1 1h-1 1l1-1m-65 0 1 1h1l-2-1m129 1v-1 1m-68 0v1-1m-3 1v1-1c-1 0 0 0 0 0h2-2m-47 3 1 1h1l-2-1m117 0 1 2v2-2l-1-2m-269 2v1l1-1 1 1v-1h-2m-8 0c0 1 0 1 0 0 1 0 1 0 0 0m-2 1v1l1-1h-1m4 0h2-2m7 0v1h1l-1-1m-10 1h-2l-4 5c0 2 1 2 2 0l1-1v-1l3-3h1-1m14 2s0 1 0 0l-1-1 1 1m-17 0v1l-1-1h1m18 2-1 1v2h-1l1 1 1-1v-3m264 1h1v-1l-1 1m1 1v1l-1 1h1v1c-1 0-1 0 0 0v-1c0 1 0 0 0 0v-2m-285 9v1-1c-1-1-1-1 0 0m-1 1 1 1v-1h-1m1 0 1 1v-1h-1m43 0v2l1-1-1-1m-3 10v2l1-1v-1h-1m-40 1 1 1v-1h-1m284 0c0-1 0-1 0 0m-2 3h1-1m-250 0-1 1c1 0 1 0 0 0h4-1v-1h-2m250 1h1c0 1 0 1 0 0h-1m-1 3 1 1 1-1h-2m-276 3 1 1v-1h-1m94 0 1 1v-1h-1m-83 1h-4v1h5v-1h-1m256 6v1c-1 0-1 0 0 0l1-1h-1m-155 2-1 1v-1 1l2-1h-1m146 2h1-1m-152 1v2l1-1v-1h-1m4 2v1h1l-1-1m3 2h1v-1l-1 1m-1 0v1-1c0-1 0-1 0 0m28 2 1 1 1-1-1-1-1 1m8 2c-1 0-1 0 0 0 2 1 2 0 1-1l-1 1m2 0c1 0 1 0 0 0m6 2v1h1l1-1h-2m44 2h1-1m-8 1v1-1h1-1m2 0h1-1m3 0h1-1m4 0h1-1m-14 1h1-1m82 5v2-1h1l-1-1m52 7h2-2m-2 0c-1 1-1 1 1 1l1-1h-2m-4 2c-4 1-7 3-7 4h3l2-2c2 0 2 0 1-1-1 0-1 0 0 0h2l5-1 1-1-3 1h-4m10-1h2-2m9 0v1-1m1 1v2h1v-2h-1m-74 0c1 0 0 0 0 0l-2 2 1 1 2-2v-1h-1m79 5 1 3v-1l-1-1v-1c-1 0-1 0 0 0m1 5v1-1c0-1 0-1 0 0m-138 0-1 1 1-1m2 0h-1 1l1 1v1-2h-1m-6 1c1 1 1 1 0 0h1s1 0 0 0h-1m42 0h-1l1 1h-1 2v-1h-1m-41 1h1v-1l-1 1m36 0h-1 2-1m-7 0 1 1v-1h-1m112 1c0-1 0-1 0 0m-107 0h1-1m-36 1c-1 0 0 1 0 0m103 0v1-1s0-1 0 0m-105 1v-1 1m103 0v2-1l1-1h-1m-103 1c0 1 0 1 0 0v-1 1m104 0v2c0 1 0 1 0 0l1-1-1-1 1-1-1 1m-103 0-1 1v2l1 2v-5m0 2-1 1v-1h1m-2 8v1s-1 0 0 0h-1 1v-1m-1 0v1-1m103 0-1 2h1l1-1 1-1h-2m-147 9v1h-1 1v-1c-1 0-1 0 0 0m171 5-2 3v1-1h1c0 2 0 1 1 0l1-1v-1l-1-1h1-1m-31 2v1-1m4 9 6 5v-1l-1-1-2-2-2-1-1-1v1m29 1h-1 1l2 1-1-1h-1m16 2h-1l-1 1h2v-1m-147 6h1c0 1 0 1 0 0h-1m0 6h1-1m0 3-1 2 2-1v-1s-1 0 0 0h-1m-2 17v1h1l1-1-1-1v1l-1-1v1m-59 0 1 1v-1h-1m59 3v1h1l-1-1m-2 5c-1 0 0 0 0 0 1 0 1 0 0 0m-62 10 1 1v-1c-1 0-1 0 0 0h-1m-1 2c0 1 0 1 0 0m53 3-1 1h1-1 2c-1 0 0 0 0 0v-1s-1 0 0 0h-1m-2 2c-1 0-1 0 0 0l1-1-1 1m-2 1 1 1v-1h-1m1 1h1v-1l-1 1m-3 1v1h-1 1v-1m1 1h-1v1h-1s0-1 0 0a126 126 0 0 1-2 2c0 2 1 1 3-1l1-2 1-1-1 1m-2 2c0 1 0 1 0 0-1 0-1 0 0 0 0-1 0-1 0 0m-96 3s0 1 0 0m92 0c-1 0-1 0 0 0 0 1 0 1 0 0h1-1m-2 0h1-1m1 1h-1 1m-110 0-1 1v-1 1h1v-1m-2 1v1-2 1m-3 0v2-1h1v-1h-1m21 1h-1 2-1m-9 3h1v1l-1-1 1 1v-1h-1m3 1c-1 0-1 0 0 0m57 10c0-1 0-1 0 0m-12 5v1h1l-1-1m10 2v-1 1m-15 0v1l-1 1v1c1 1 1-1 1-3m17 1v1c1 1 1 1 1-1h-1m-15 0v1-1m-1 0 1 2c0-1 0-2-1-1v-1m12 4c0 1 0 1 0 0m-14 1v1l1 1v-1c0 1-1 0 0 0l-1-1c0-1 0-1 0 0m-31 3s-1 0 0 0c0-1 0 0 0 0m-2 0c-1 0-1 0 0 0v1h-1c0-1 0-1 0 0v1l1-1v-1m-5 1v-1 1m0 0 1 1v-1h-1m2 1c0-1 0 0 0 0m-19 0 1 1v-1h-1m7 2v1l1-2-1 1m2 0v1-1h1-1m2 0c0 1 0 1 0 0m60 2v1h1v-1h-1m-15 1v1l-1 1v1l1-1v-1c0 1 0 0 0 0v-1c1 0 1 0 0 0m-6 2v1l1-3-1 2m20 1h2l-1-1-1 1m-16 2s-1 0 0 0 1 0 0 0h1l-1-1v1-1 1m15 1 1 1v-1h-1m-21 2v1h-1v2-1l1-1v-1s1 0 0 0m1 0v2l1-1v-1h-1m3 1 1 1v-1h-1m1 1v5l1-3v-3l-1 1m-5 4c0-1 0-1 0 0m4 6v-1 1m-1 0v-1 1m17 2v3c0-1 0-1 0 0v-2h1-1l1-1c1 0 1 0 0 0h-1m-1 4c1 0 1 0 0 0h1-1m1 0h1-1m-1 2v1l1-1h-1m-1 0-1 1-2 1h4l-1-1c0 1 0 1 0 0v-1m-7 2c1 0 1 0 0 0m6 0h-1 1"/>
    <path fill="#8c8489" d="M83 5v1h2c1 1 1 0 0 0l-2-1m4 3c1 0 1 0 0 0V7v1m1 3v1c-1 0-1 0 0 0l1-2-1 1m1 1-1 1h-1c0 2-2 5-3 4v-2 3h3l2-5c0 1 0 0 0 0v-1m-3 2c-1 0 0 0 0 0h1-1m-30 6v2h1v1l1 1-1-2v-2h-1m157 5h1l1 1h1c1 0 0 0 0 0l-1-1h-2m6 2h2v1h2a43 43 0 0 1 6 2 69 69 0 0 1 3 1h2c-1 0 0 1 0 0h1l4 1h2-1c1 0 1 0 0 0a64 64 0 0 1-11-3l-3-1-7-1M65 27l-1 1-1 1c0 1 1 1 2-1v-1m-2 4c-1 2 2 10 4 11h1l1 1c1 0 1 0 0 0l1 1h1l4 2 1-1c-1 0-1 0 0 0l-1-1c-5 0-11-6-11-11l-1-2m47 2v2-1h1l-1-1m-3 4-1 1v1l-1 1v-1c1 0 0 0 0 0s-1 0 0 0l-1 1-1 1 2-1 3-2-1-1m196 4h3-1l-1-1-1 1m4 0v1h1v-1h-1m6 1h-1l1 1h1l-1-1m5 1 1 1-1-1m37 4v1-1m4 1h-1l3 1a60 60 0 0 1 6 1h1v-1h-2l-4-1h-3m11 2 2 1-1-1h-1m4 1h-1 3-2m-3 16-2 1h-1 4l1-1h-2M180 80h1-1m-81 8c1 0 1 0 0 0 0-1-1-1 0 0m1 0 1 1v-1h-1c-1 0-1 0 0 0m3 1a57 57 0 0 0 6 3v1l3 1 1 1h3v1h1l3 2h2v-1h-1l-12-5-6-3m168 14h-1l-2 1h3v-1h2-2m-34 14c-1 0-1 0 0 0l1-1-1 1m-62 0 1 1h1v-1h-2m127 0-1 1v1l1-1v-1m-124 1s0 1 0 0v1h2l-1-1h-1m53 1h1l-1-1v1m-2 0h-2l-1 1h-1l-1 1h-1c-1 1 0 1 1 1l6-3-1-1v1m-46 1v1h1l-1-1m37 2h1-1m-184 4h1v1l1 1-1-2h-1m2 4v-1 1m169 1c0-1 0-1 0 0m-170 2c-1 0-1 0 0 0h1-1m266 1h-1 1v-1 1m-267 1-2 2h-2l2 2c2 0 5-4 3-5l-1 1m-4-1 1 1v-1h-1m270 0v3h1l-1-3m-285 3v2l1 1v1-4h-1m42 0h1-1m146 0v1-1m-1 2v1l1-1h-1m-143 4v1l1 1v-2h-1m-1 4v3-1h-1v1c1 0 0 0 0 0v1l1-1 1-3h-1m-41 2v1l-1 1c1 1 1 0 1-1v-1m282 3h1-1m-283 2 4 8h1c-1 0 0 1 0 0h1v1h1l3 1h2l-1-1c-4 0-10-5-10-9l-1-1v1m283 0h1-1m0 1c-1 0-1 0 0 0 0 1 0 0 0 0m-104 2v1c-1 0-1 0 0 0v-1m2 1-1 1h1v-1m-3 2v1-2 1m1 2h1-1m-79 2h1-1m76 1-1 3h1v-2l1-2-1 1m1 3v1l1-1h-1m0 2v1-1m93 1-3 1-3 1h1l2-1h2s0-1 0 0l1-1c1 1 2 0 1-1l-1 1m-96 1v2-3 1m89 1c-1 0-1 0 0 0m-90 3-1 2 1-1v-2 1m-1 2-1 3v1h1v-4m1 3v1l1-1h-1m-19 1 2 1v-1h-1c0 1 0 1 0 0h-1m3 1v1l1-1h-1m13 1a54 54 0 0 0-1 4 355 355 0 0 0 2 0v-5l-1 1m2-1v1h1l-1-1m-12 1 1 1v-1h-1m26 2h1-1m3 1h-1 1s0-1 0 0m3 0h-1l6 1c0-1-2-2-3-1h-2m5 0 1 1v-1l-1-1v1m5 0h-1 2-1m-31 2v1-2 1m104 3v1h-1 1v-1m-2 3-2 2-2 2v1h-1l-1 1v1h1l3-4 3-3h-1m-105 2v1l1-2-1 1m-2 0v3-1 1l1-1v-2h-1m-1 3v3l-1 1-2 5 1-1h1v-1c-1 1-1 1 0 0 0 0 0-1 0 0v-1l1-1 1-1h-1v-2l1-1c1 0 1 0 0 0l-1-1m2 2v1-1m-1 1v1l1-1h-1m0 1-1 4 1-4m178 3h1v1h1l-2-1m-33 1 1 1v-1h-1m-146 0-1 1v2l1-1a1096 1096 0 0 1 0-2m-3 2v1h1v-2l-1 1m184 1v2l1-1-1-1m-139 1h1-1m4 0v1h1c-1 1 0 1 1 1h1v1l1-1-2-1-2-1m-50 1 1-1-1 1m146 0-1 1v1a87 87 0 0 0-1 3l1-1 1-3 1-2-1 1m-144 1s0 1 0 0l1-1-1 1m-2 0s0 1 0 0m74 0 1 1v-1h-1m3 0v1h2l-2-1m-22 0v1-1m130 2h-1l-1 1h1-1l-1 1h-1v1h2l3-1h2l1-1c1 0 1 0 0 0l-3-1h-1c0-1 0-1 0 0m-186 1v1-1c1 0 1 0 0 0 0-1 0-1 0 0m193 1 1 1-1-1m-195 3-2 8c1 1 2-2 2-4v-1h1v-1s1 0 0 0v-1l-1-1m2 2v1l-1 1v1l1-1v-2m-2 2h1-1m42 2v2c1 0 2-2 1-3l-1 1m106 0h-1l-2 1h2l1-1h1-1m-147 1-1 1v1l1-1v-1m142 2c-3 2-6 7-7 11l1 3v2l1 1 2 5h1v-1c-5-6-4-14 1-20l1-1c0-1 0-1 0 0m-143 1h-1l1 1v-1m-3 2c0-1 0 0 0 0m2 1v2-2m-3 2v-1 1m2 1-1 1v1h1v-3 1m-3 0 1 1h-1l-1 3v2l-1 1v1l1-1 1-1v-1l1-2 1-2v-1l-1 1v-1h-1m1 5h1l-1-1v1m0 2v1-1c0-1 0-1 0 0m-4 2v2l1-2h-1m-1 4v2l-1 1 1-3m201 3v1-1m-20 2c-1 1 3 3 5 3l1-1h-3l-1-1h1c0 1 0 1 0 0l-1-1v1h-1c1-1-1-1-1-1m11 2h-1v1l2-1h-1m-144 3v1c1 1 1 0 0 0v-1m1 4-1 3 1 1h-1l1 1h-1v2h1v-1l1-4-1-4v2m-53 0a33 33 0 0 0-1 2l1-1v-1c0-1 0-1 0 0m-7 21h1-1m-2 5v1-1m58 3c0 1 0 2 1 1v-2l-1 1m1 0h-1 1m-58 1v1-1m56 1 1 1-1-1m-59 2-1 1 1-1c1 0 1 0 0 0m2 0v1-2 1m-4 4v1h1v-1c1 0 1 0 0 0v-1l-1 1m2 1v1-1m-4 4v1h1v-1c1 0 1 0 0 0h-1m72 0h1-1m-69 0-1 1h1v-1m53 2h1-1m-56 1h-1v1c0 1 0 1 0 0h1s1 0 0 0l1-1h-1s-1 0 0 0c0-1 0-1 0 0m54 0-1 2h1l1-1h1v-1h-2m-52 0v1-1m49 4c1-1 0-1 0 0m-9 9-1 1h2v-1h-1m-94 1-1 2h1v-1l1-1 1-1-2 1m-17 0v1h1v-1h-1m-7 2v1-1m13 1c0 1 0 1 0 0m0 1c1 0 1 0 0 0 0-1 0-1 0 0m1 1v1-2 1m228 6v-1 1m-169 4h1l-1-1v1m1 2 1 2v2s-1 0 0 0v2-6h-1m-8 1 1 1-1-1m-4 4-1 1h1v-1c0-1 0-1 0 0m-2 1v1-1m-1 1c0 1 0 1 0 0v1-1m10 6v4l1 1-1-1v-2l1-4-1 2m-7-1h1-1m1 2v1l1-1-1-1v1m-2 0c0 1 0 1 0 0m-38 0v1l1-1v1l1-1h-2m-7 1v1h2v-1h-2m-19 0 1 1v-1h-1m1 1 2 1 1 1v-1c1 0 0 0 0 0l-1-1h-2m20 1h1-1m40 2-1 3 1-1 1-2h-1m8 0v-1 1m-56 0h1v1-1h-1m2 0v1-1m48 1v1c0 1 0 1 0 0l1-1h-1m6 2h1-1m-10 1v1l1-1h-1m4 0v1-1m3 2v1-3 2m3-1h1-1m-10 0v1-1m3 0v1l1-1h-1m12 1 1 2v-1c-1 0-1 0 0 0v-1h-1m-13 1 1 1v-2l-1 1m-1 1v1-1c0-1 0 0 0 0m1 0v1h-1 2l-1 1v1l-1 1 1 1h-1v2h1-1v3l1-4a41 41 0 0 1 1-6h-1m12 1h1-1m-14 1v2-2m6 0v1-1c1 0 0 0 0 0 0-1 0-1 0 0m-1 2v3l1-3h-1m-5 1v1-1m-7 2-2 5-1 1c1 1 3-3 3-4v-1c0 1 0 0 0 0l1-2-1 1m11 0v2l-1 2c-1 2-1 2-1 0v-1 1l-1 1v1c1 0 1 0 0 0l1 1c1 1 2 0 2-1h1v-1h-2 1v-2l1-2c0-1 0-2-1-1m2 2-1 2 1-1 1-2h-1v1m-9 4c-1 0-1 0 0 0v1c0 1 1 1 1-1h-1m9-1v3-3m-17 1v1-1m24 2v2h1l1-1-1-1h-1m-10 0c-2 1-2 1 0 1l1-2-1 1m2 10h-1 2-1"/>
    <path fill="#545454" d="M74 4v1h-1c-1 0 0 0 0 0h2l-1-1m8 2h1-1M66 7h-2 2c1-1 1-1 0 0M56 22v1c0-1 0 0 0 0v-1m154 2 1 1-1-1M66 25h1-1m-2 4v1l1 1 1-1-2-1m22 3v1a402 402 0 0 1 0-1m1 0v1-1m6 1 1 1c1 2 0 3-2 5l1 2 1-1 1-1 1-4-1-1-2-1m-7 1v2c0-1 0-1 0 0l1-1-1-1c0 1 0 0 0 0v-1 1m169 1 1 1h4l1 1h9l-5-1-7-1h-3M86 36l1 2v-2h-1m1 1v1l1 1h1v-1l-1-1h-1m188 1h1v-1l-1 1m5 0h-1v1l2-1 1 1h1v-1h-3m-4 0s0 1 0 0h1-1m7 0 1 1h2l-1-1h-2m-6 0h1-1m-172 1h1-1m-15 2-1 2h1l1-1h1l-1-1h-1m216 0h1-1m78 12c-1 0-1 0 0 0h1l1 1v-1h-2m5 6-1 1 1-1v-1 1m-19 8h1-1c0-1 0 0 0 0m-11 2-1 1 2-1h-1M96 87l-1-1 1 1m184 14 1 1c-1 0 0 0 0 0 2-1 1-2-1-1m-146 2a24 24 0 0 0 5 3l4 1h3l-5-2h-1l-1-1-2-1h-3m139 0c0 1 0 1 0 0 1 0 1 0 0 0m-3 1h1-1m-119 4 1 1s-1 0 0 0l-1-1m2 1 1 1v-1h-1m1 1h1v1h2v1-2h-3m-1 0h1c0 1 0 1 0 0h-1m100 0-1 1h1l1-1v1-1h-1m-95 1 2 1-1-1h-1m88 2h-1l1 1v-1h1-1m57 1c1 0 1 0 0 0m-65 2v-1 1m-61 2h2-2m-147 5h-2 2c1-1 0-1 0 0m-7 1-1 1s-1 0 0 0h1v-1m279 1h1v-1l-1 1m1 3c-1 0-1 0 0 0 0-1 0-1 0 0M17 139v1-1m7 7v1c2 0 2-1 0-2v1m-4 1c1 0 1 0 0 0m23 4 1 2v1l1 1v1h-1v-2h-1c0 1 0 1 0 0-1 0 0 0 0 0l-1-1h-1c0 1 0 1 0 0l1 1c1 0 0 0 0 0v1h1l1 1-2 3c-2 1-2 1-1 2l1-1 3-2 1-2c1 0 1 0 0 0v-1l-1-1v-1l-2-2m-3 3h1l1 1a185 185 0 0 1-2-1m75 5v1-1m185 3v1c-1 0-1 0 0 0v2-2 1h-1s0 1 0 0v1h1s0-1 0 0v-2h1v-1l-1-1v1m-4 4-2 1-1 1c1 0 1 0 0 0h2v-1h1l1-1h1v-1l-2 1m-176 6h-3l-1 1c-2 1-1 2 1 2h4l1-1v-1h-1v-1h-1 1-1m6 1-1 2h-1l-1-1v1l-1 1 1 1a68 68 0 0 0 6 2h1c2 2 5 2 5 0h1v-1h-1v1-2c-2 0-3 0-2-1l-1-1-1 1c0 2-1 3-2 2l-2-1c-1 0-1-2 1-3l-1-1h-1m173 1-9 3-3 1h-5l1 2a38 38 0 0 0 7-2h2l2-1 4-2h2v-1h-1m-158 0v1h1l2 1h1l2 1h3l-3-1-2-1h-1l-1-1h-2m-12 1v1c1-1 1-1 0 0v-1s0-1 0 0m-16 0h1-1m-2 1v1-2 1m43 2h2-2m3 0v1h-1 2v1l1-1-1-1h-1m2 1v1h1v-1h-1m120 1-1 1c-1 1-1 1 0 0a550 550 0 0 1 3-2l-2 1m-138 0 1-1c0 1 0 1 0 0l-1 1m132 0-6 2-5 1h-1l-2 1-1 1c-2 2-1 2 3 1a288 288 0 0 1 16-4c0-2-2-2-4-2m-132 1v1-1c0-1 0-1 0 0m5 0v1-1h1-1m-3 1h1-1v-1 1m31 1c1 0 0 0 0 0m-17 1 1 1-1-1m-3 0h1-1c-1 0-1 0 0 0m9 1v1l5 1h1v-2h-6m87 0h-1l-1 1h-2l-2 1v1h5v1-1c0 1 0 1 0 0h3l1-1h2c2 0 2-1 1-1l-1-1-1 1-1-1h-3m-80 1v1c-1 1 0 1 3 1h4l6 1 1-1-1-1a40 40 0 0 1-6 0h-3l-2-1h-2m51 0v1-1m8 2h-10l-1 1h-9l-1-1-2 1 1 1 3 1 2-1 2-1h2l7 1h1v1h7l7-2h1l2-2-3 2h-2l-3-1h-4m-40 0c0 2 4 3 7 2l-1-1-2-1h-4m162 13h3s0-1 0 0h-3m-10 0h3-3m-62 5h-1l-1 1h-1l-1 1-1 1-1 1h1l1-1 2-1h1c2-1 2-1 1-2l1-1-1 1m82 0 1 1v-1h-1m-90 5h-1v1h1v-1m-3 0v1-1 2l1-1v-1h-1m-2 1 1 1c0-1 0-1 0 0l1-1h-2m-45 2v1-1m102 1v1l1-1h-1m-104 3v1l1-1h-1m108 7v1h2l-2-1m-3 4 1 1v-1h-1m-110 2 1 1v-1h-1m134 9v1h2l-2-1m3 1 1 3v-1l1 1v-1l-1-1h-1l1-1h-1m2 4v1l1-2-1 1m-6 8v1-1c0-1 0-1 0 0m-3 1-1 1-2 1-1 1h-2l-3 1a199 199 0 0 0-3 1v1l2-1h5l1-1 4-2 1-1v-1h-1m6 2 2 1-1-1h-1m-149 19v1h1l1 1s1 0 0 0h1l-1-1-1-1h-1m12 1v3l1 1v1l1-2v-3h-2m-18 4 1 1v1-1h1-1v-1h-1m2 2h-1v1h1v-1s-1 0 0 0m16 2v1h2-1v-2 1l-1-1v1m-13 0v1h1l-1-1m-1 1v1h-1c1 0 0 0 0 0h2v-1c-1 0-1 0 0 0h-1m-32 0v1h1-1v-1m47 0-1 1h1v-1m-53 1 1 1c0-1 0-1 0 0v-1h1-2v-1 1m-1 0h1-1m3 0 1 1-1-1m3 0v1l1-1h-1m0 1v2l1-1v-1 1-1h-1m23 4v1-1m1 0-1 1h1c-1 0-1 0 0 0v-1m0 2h-1 1c0-1 0-1 0 0 0-1 0-1 0 0m-23 0v1l-1-1v1h2c1-1 0-1-1-1m-2 1v1h1v-1h-1v-1 1m33 1v3-1h1v-2h-1m-15 1v1-1m0 0h1v1-1h-1m-11 2h-1v2h1c-1 0 0 0 0 0v-2s0-1 0 0m23 6h1v1c1 0 1 1 0 0v1h1v-1h-1l1-1h-2m-19 0v1h-1v1l-1-1c1 0 0 0 0 0v1h2v-1c1 0 1 0 0 0h1v-1h-1m10 2h1l1 1h1v-1h-1c0-1 0 0 0 0h-2m11 0c0 1 0 1 0 0m-17 7v1s0 1 0 0l1-1h-1m1 0v1l1-1h-1m-1 1h-1c0 1 0 0 0 0 0-1 0-1 0 0h-1v1-1 1h1l1-2v1m6 0v1h1-1v1h1-1l1 1h1-1s0-1 0 0v-1h1-1v-2h-1m-16 0h1v1c-1 0-1 0 0 0v1-1h1-1v-1h-1m16 0h1l-1 1v-1c0-1 0 0 0 0m11 1v1-1m-2 2h-1l1 1v-1m-19 4 1 1v-1h-1m1 1h1c-1 0-1 0 0 0v-1l-1 1m1 0h1v1-1c0 1 0 0 0 0h1-1v-1l-1 1m-108 1v1l1-1h-1m115 0v1h1l-1-1m-109 1 1 1v-1h-1m17 2v1l-1 1c1 1 3-1 3-1l-2-1m-4 2 1 1h1v-1h-2m53 10v2l1 1v4c2 2 2-4 0-5v-1l-1-1m-9 0-1 1v-1c0 1 0 0 0 0l-1 1v1l1-1 2-1h-1m-4 2-1 2h1v-1h1l-1-1m2 0-1 2h-1v3l1-2 1-2v-1m3 1h-1 1v-1 1m-6 2v1-1m15 1s0 1 0 0m0 2h-1v4l1-1h1v-1l-1-1 1-1h-1 1-1c0-1 0 0 0 0m-14 1s0 1 0 0v-1 1m-1 0v3-3m15 3v1c0-1 0 0 0 0v1l1-1-1-1m2 1v1h-1l1 3 1-2v-2h-1m-2 1v1-1m-44 2v1h1l-1-1m28 1h1l-1-1v1-1 1m-34 1v1-1m33 0 1 1v-1h-1m-32 0v1-1m50 1v3h1v-2l-1-1m-69 1c0 1 1 2 2 1v-1h-2m50 0v1l-1 2v4h-1v1l-1 2a98 98 0 0 1 0 2v-1l1-2h1l1-4v-4l1-1h-1m-46 1v1l1-1h-1m48 9v1s-1 0 0 0h1l-1-1m-1 4h-1 1m-3 13h1c1 0 1 0 0 0h-1m17 4c0 1 0 0 0 0 1 0 1 0 0 0m-12 2 1 1v-1h-1m11 0v1-1"/>
    <path fill="#494646" d="m87 31-1 3v-1l2-1v-1h-1m165 3h1-1m3 1h1v-1l-1 1m20 3h4-4m14 1s1 0 0 0m3 0v1-1m1 1h1c1 0 0 0 0 0h-1M91 41h1l-1-1v1m3 1c0-1 0-1 0 0m294 16v1-1m-30 12h1-1c0-1 0-1 0 0m-83 33h1-1m-124 6h1a68 68 0 0 1 3 1h-1l-1-1h-2m7 2h1-1m7 3h1v-1l-1 1m137 19v-1 1M40 152l2 3v-1l-2-2m11 4h1v-1l-1 1m-2 0s1 0 0 0m148 0 1 1-1-1m103 8c-1 1 0 1 0 0v-1 1m-182 8c-1 0-1 0 0 0h1c1 0 1 0 0 0h-1m4 1 1 1 1 1h1c0-2-2-3-3-2m6 0v1c-2 1-2 3-1 3l2 1h1l1-2v-1c1 0 0 0 0 0l-1 1h-2l1-2-1-1m150 1h1l1-1-2 1m-164 0h-1l1 1c1 1 1 0 1-1h-1m-2 1v1l1-1h-1m-2 1h1c0 1 0 1 0 0h-1m24 0v1h1v1l1 1v-2l-3-1h1m10 0h1-2 1m-34 0h-1v1l-1 1h-1 3l1-1-1-1m28 2v3l3 1v-2h1c0 1 0 1 0 0h1l1 2 2-1h1v-1h-2l-2-1h-2l-3-1m16 0 1 1 2-1h-3m131 0h1-1m-6 1h-2l-1 1c-1 0-1 0 0 0l1 2 1-1c0-2 3-2 4-1v-1h-3m-119 0h1-1m5 1v1-1m101 2h1-1m-114 1 3 1h2l1 1c1 1 5 2 5 0l-2-1h-2l-3-1h-2l-1-1h-1v1m110 0h-1 1m-5 1-3 1-1 1h4l1-1 1-1h-2m-90 1h-1 3v3l1-1v-2h-3m7 2h2l-1-1h-1v1m38-1h1c1 0 0 0 0 0h-1m4 0h1c1 0 1 0 0 0h-1m26 1h-1v1c1 1 4 1 3-1h-2m-16 0 1 1v-1h-1m-35 1h1-1m4 0 2 1h-1l-1-1m4 1 4 1c1-1 1-1-1-1l-2-1-1 1m9-1h1-1m-10 1c-1 0 0 0 0 0 1 0 1 0 0 0m72 22-1 1 1-1h1v-1l-1 1m74 31v1-1m9 2-1 4v1l1-3v-3 1m-10 1v1-1m-141 30v1h1l-1-1c1 0 1 0 0 0m-7 4v1h1v-1c0 1 0 1 0 0h-1m1 1 1 1-1-1m0 2h1-1m17 1 1 1v-1h-1m-12 1v1-1m-1 1c0 1 0 1 0 0 1 0 1-1 0 0m-1 1c-1 0-1 0 0 0v-1 1m-36 0v1-1m4 0v1-1m0 2-1 1 1-1v-1 1m22 3v1l1-1h-1m1 1v1-1c-1 0-1 0 0 0m-23 1 1 1-1-1m32 2h-1 1c0-1 0-1 0 0m-1 0 1 1-1-1m0 2v1-1m-47 3 1 1v-1h-1m24 5v1-1m-28 6v1-1m32 3v-1 1m-8 0v1-1m15 0v1-1m0 2h1-1m-15 0v1l1-1h-1m6 5v1-1m-87 7h1-1m46 8h-1v1l2-1h-1m-3 1h-1l-1 1c0 1 0 1 0 0h1v1l2-1v-1l-1-1v1m7 1 1 1v-1l-1-1v1m2 2 1 3v3h1-1v-5l-1-1v-1 1m-12 0-1 1v1h-1 1-1v2l-1 1v1c0 1 0 1 0 0v6l-1 3 1-3 1-1v-1l-1-1 1-1v-2l1-2v-2h1l1-2h-1s-1 0 0 0m7 6v1-1c0-1 0-1 0 0m6 3-1 1v2l-1 2v2l1 1 1-3v-3l1-2h-1m-17 8v1-1s0-1 0 0m18 0 1 1-1-1m-18 0v2l1-1v-1h-1m-1 1s0 1 0 0m-47 1h1-1m43 11v1h1l-1-1m-1 2v2l1-1a27 27 0 0 1 0-2l-1 1m21 11v1-1"/>
  </g>
</svg>